<svg width="10" height="7" viewBox="0 0 10 7" fill="none" xmlns="http://www.w3.org/2000/svg">
<path fill-rule="evenodd" clip-rule="evenodd" d="M5.53026 5.98534C5.38962 6.12594 5.19889 6.20493 5.00001 6.20493C4.80114 6.20493 4.61041 6.12594 4.46976 5.98534L0.227013 1.74259C0.155381 1.67341 0.0982438 1.59065 0.058937 1.49914C0.0196303 1.40764 -0.00105945 1.30923 -0.00192481 1.20964C-0.00279017 1.11006 0.0161863 1.0113 0.053897 0.919126C0.0916076 0.826954 0.147297 0.743214 0.217717 0.672795C0.288137 0.602375 0.371875 0.546685 0.464047 0.508975C0.55622 0.471264 0.65498 0.452288 0.754564 0.453153C0.854149 0.454019 0.952563 0.474708 1.04407 0.514015C1.13557 0.553322 1.21833 0.610458 1.28751 0.682091L5.00001 4.39459L8.71251 0.682091C8.85397 0.545472 9.04342 0.469877 9.24006 0.471585C9.43671 0.473294 9.62482 0.552171 9.76388 0.691227C9.90293 0.830283 9.98181 1.01839 9.98352 1.21504C9.98523 1.41169 9.90963 1.60114 9.77301 1.74259L5.53026 5.98534Z" fill="#5D6166"/>
</svg>
