<svg width="16" height="16" viewBox="0 0 16 16" fill="none" xmlns="http://www.w3.org/2000/svg">
<path d="M7.15001 11.45L12.4375 6.1625L11.3875 5.1125L7.15001 9.35L5.01251 7.2125L3.96251 8.2625L7.15001 11.45ZM8.20001 15.5C7.16251 15.5 6.18751 15.303 5.27501 14.909C4.36251 14.515 3.56876 13.9808 2.89376 13.3063C2.21876 12.6313 1.68451 11.8375 1.29101 10.925C0.897512 10.0125 0.700512 9.0375 0.700012 8C0.700012 6.9625 0.897012 5.9875 1.29101 5.075C1.68501 4.1625 2.21926 3.36875 2.89376 2.69375C3.56876 2.01875 4.36251 1.4845 5.27501 1.091C6.18751 0.6975 7.16251 0.5005 8.20001 0.5C9.23751 0.5 10.2125 0.697 11.125 1.091C12.0375 1.485 12.8313 2.01925 13.5063 2.69375C14.1813 3.36875 14.7158 4.1625 15.1098 5.075C15.5038 5.9875 15.7005 6.9625 15.7 8C15.7 9.0375 15.503 10.0125 15.109 10.925C14.715 11.8375 14.1808 12.6313 13.5063 13.3063C12.8313 13.9813 12.0375 14.5157 11.125 14.9097C10.2125 15.3037 9.23751 15.5005 8.20001 15.5ZM8.20001 14C9.87501 14 11.2938 13.4187 12.4563 12.2562C13.6188 11.0937 14.2 9.675 14.2 8C14.2 6.325 13.6188 4.90625 12.4563 3.74375C11.2938 2.58125 9.87501 2 8.20001 2C6.52501 2 5.10626 2.58125 3.94376 3.74375C2.78126 4.90625 2.20001 6.325 2.20001 8C2.20001 9.675 2.78126 11.0937 3.94376 12.2562C5.10626 13.4187 6.52501 14 8.20001 14Z" fill="#4B006E"/>
</svg>
