<svg width="21" height="21" viewBox="0 0 21 21" fill="none" xmlns="http://www.w3.org/2000/svg">
<g clip-path="url(#clip0_150_824)">
<path d="M7.66145 1.06794C5.66314 1.76117 3.9398 3.07695 2.74456 4.822C1.54933 6.56706 0.94519 8.64941 1.02089 10.7632C1.0966 12.877 1.84815 14.9108 3.16517 16.5659C4.48218 18.2209 6.29523 19.4101 8.33802 19.9586C9.99415 20.3859 11.7293 20.4047 13.3943 20.0132C14.9026 19.6744 16.297 18.9498 17.4411 17.9101C18.6319 16.795 19.4962 15.3765 19.9411 13.807C20.4248 12.1002 20.5108 10.3053 20.1927 8.56012H10.8927V12.4179H16.2786C16.171 13.0332 15.9403 13.6205 15.6004 14.1445C15.2605 14.6686 14.8184 15.1187 14.3005 15.4679C13.6428 15.903 12.9014 16.1957 12.124 16.3273C11.3442 16.4723 10.5444 16.4723 9.76458 16.3273C8.97425 16.1639 8.22661 15.8377 7.56927 15.3695C6.51325 14.622 5.72032 13.56 5.30364 12.3351C4.87991 11.0873 4.87991 9.73451 5.30364 8.48668C5.60024 7.61202 6.09057 6.81565 6.73802 6.157C7.47894 5.38941 8.41697 4.84074 9.4492 4.57118C10.4814 4.30162 11.568 4.32158 12.5896 4.62887C13.3877 4.87386 14.1175 5.3019 14.7208 5.87887C15.3281 5.27471 15.9344 4.66898 16.5396 4.06169C16.8521 3.73512 17.1927 3.42419 17.5005 3.08981C16.5795 2.23274 15.4985 1.56584 14.3193 1.12731C12.1719 0.347607 9.82236 0.326653 7.66145 1.06794Z" fill="white"/>
<path d="M7.6599 1.06796C9.82062 0.326176 12.1702 0.346578 14.3177 1.12577C15.4971 1.56728 16.5777 2.2374 17.4974 3.09765C17.1849 3.43202 16.8552 3.74452 16.5365 4.06952C15.9302 4.67473 15.3245 5.27786 14.7193 5.8789C14.1159 5.30193 13.3861 4.87389 12.588 4.6289C11.5667 4.32053 10.4802 4.29941 9.44774 4.56787C8.41524 4.83633 7.47664 5.384 6.7349 6.15077C6.08745 6.80942 5.59713 7.6058 5.30052 8.48046L2.06146 5.97265C3.22085 3.67353 5.22826 1.91487 7.6599 1.06796Z" fill="#E33629"/>
<path d="M1.20443 8.45703C1.37852 7.59421 1.66756 6.75863 2.0638 5.97266L5.30286 8.48672C4.87914 9.73454 4.87914 11.0873 5.30286 12.3352C4.2237 13.1685 3.14401 14.006 2.0638 14.8477C1.07185 12.8731 0.769321 10.6234 1.20443 8.45703Z" fill="#F8BD00"/>
<path d="M10.8942 8.55859H20.1942C20.5123 10.3038 20.4263 12.0987 19.9426 13.8055C19.4977 15.375 18.6334 16.7935 17.4426 17.9086C16.3973 17.093 15.3473 16.2836 14.302 15.468C14.8202 15.1184 15.2626 14.6678 15.6025 14.1432C15.9424 13.6185 16.1729 13.0307 16.2801 12.4148H10.8942C10.8926 11.1305 10.8942 9.84453 10.8942 8.55859Z" fill="#587DBD"/>
<path d="M2.06146 14.8477C3.14167 14.0144 4.22136 13.1769 5.30052 12.3352C5.71804 13.5605 6.51209 14.6225 7.56927 15.3696C8.22866 15.8356 8.97792 16.1592 9.76928 16.3196C10.5491 16.4646 11.3489 16.4646 12.1286 16.3196C12.9061 16.188 13.6475 15.8953 14.3052 15.4602C15.3505 16.2758 16.4005 17.0852 17.4458 17.9008C16.3019 18.941 14.9074 19.6663 13.399 20.0055C11.734 20.3969 9.99884 20.3782 8.34271 19.9508C7.03287 19.6011 5.80939 18.9846 4.74896 18.1399C3.62656 17.2488 2.70983 16.1258 2.06146 14.8477Z" fill="#319F43"/>
</g>
<defs>
<clipPath id="clip0_150_824">
<rect width="20" height="20" fill="white" transform="translate(0.694275 0.410156)"/>
</clipPath>
</defs>
</svg>
