<svg width="20" height="21" viewBox="0 0 20 21" fill="none" xmlns="http://www.w3.org/2000/svg">
<g clip-path="url(#clip0_104_213)">
<path d="M18.3333 10.9656C18.2602 10.966 18.1877 10.952 18.12 10.9243C18.0523 10.8967 17.9908 10.856 17.9389 10.8045L9.99997 2.86002L2.06109 10.8045C1.95481 10.8955 1.8181 10.943 1.67828 10.9376C1.53846 10.9322 1.40583 10.8743 1.30688 10.7753C1.20794 10.6764 1.14998 10.5438 1.14458 10.4039C1.13918 10.2641 1.18674 10.1274 1.27775 10.0211L9.61108 1.6878C9.71517 1.58432 9.85598 1.52625 10.0028 1.52625C10.1495 1.52625 10.2903 1.58432 10.3944 1.6878L18.7278 10.0211C18.8042 10.0991 18.856 10.1979 18.8766 10.3052C18.8972 10.4124 18.8857 10.5234 18.8437 10.6241C18.8016 10.7249 18.7307 10.811 18.6399 10.8718C18.5492 10.9325 18.4425 10.9651 18.3333 10.9656Z" fill="white"/>
<path d="M9.99998 4.73779L3.33331 11.4267V18.1878C3.33331 18.4825 3.45038 18.7651 3.65875 18.9735C3.86712 19.1818 4.14974 19.2989 4.44442 19.2989H8.33331V13.7433H11.6666V19.2989H15.5555C15.8502 19.2989 16.1328 19.1818 16.3412 18.9735C16.5496 18.7651 16.6666 18.4825 16.6666 18.1878V11.3878L9.99998 4.73779Z" fill="white"/>
</g>
<defs>
<clipPath id="clip0_104_213">
<rect width="20" height="20" fill="white" transform="translate(0 0.410034)"/>
</clipPath>
</defs>
</svg>
