<svg width="20" height="21" viewBox="0 0 20 21" class="" fill="#4B006E" xmlns="http://www.w3.org/2000/svg">
<path d="M15.8333 3.74337H12.35C12.1794 3.25624 11.8616 2.83417 11.4406 2.53556C11.0196 2.23694 10.5162 2.07654 10 2.07654C9.48384 2.07654 8.98045 2.23694 8.55944 2.53556C8.13844 2.83417 7.82063 3.25624 7.65 3.74337H4.16667C3.72504 3.74469 3.30189 3.92071 2.98961 4.23299C2.67734 4.54526 2.50132 4.96842 2.5 5.41004V17.0767C2.50132 17.5183 2.67734 17.9415 2.98961 18.2538C3.30189 18.566 3.72504 18.7421 4.16667 18.7434H15.8333C16.275 18.7421 16.6981 18.566 17.0104 18.2538C17.3227 17.9415 17.4987 17.5183 17.5 17.0767V5.41004C17.4987 4.96842 17.3227 4.54526 17.0104 4.23299C16.6981 3.92071 16.275 3.74469 15.8333 3.74337ZM10 3.74337C10.1648 3.74337 10.3259 3.79225 10.463 3.88382C10.6 3.97538 10.7068 4.10553 10.7699 4.2578C10.833 4.41008 10.8495 4.57763 10.8173 4.73928C10.7852 4.90093 10.7058 5.04942 10.5893 5.16596C10.4727 5.28251 10.3242 5.36187 10.1626 5.39403C10.0009 5.42618 9.83337 5.40968 9.6811 5.34661C9.52882 5.28353 9.39868 5.17672 9.30711 5.03968C9.21554 4.90264 9.16667 4.74152 9.16667 4.57671C9.16733 4.3559 9.25533 4.14432 9.41147 3.98818C9.56761 3.83204 9.77919 3.74403 10 3.74337ZM8.33333 7.91004L10.6583 10.2384L12.7583 8.13837L11.6667 7.07671H15V10.41L13.9367 9.31754L10.66 12.5967L8.33333 10.2684L6.17833 12.4217L5 11.2434L8.33333 7.91004ZM15.8333 16.2434H4.16667V14.5767H15.8333V16.2434Z" fill="white"/>
</svg>
