<svg width="20" height="21" viewBox="0 0 20 21" fill="none" xmlns="http://www.w3.org/2000/svg">
<path d="M15.4167 2.91006C15.723 2.91015 16.0255 2.97778 16.3027 3.10813C16.5798 3.23849 16.8249 3.42836 17.0203 3.66422C17.2157 3.90008 17.3567 4.17614 17.4333 4.47272C17.5098 4.7693 17.52 5.07912 17.4632 5.3801C17.4063 5.68107 17.2838 5.96582 17.1043 6.21404C16.9249 6.46226 16.6929 6.66785 16.4249 6.81618C16.1569 6.9645 15.8595 7.05191 15.5539 7.07217C15.2482 7.09243 14.9419 7.04505 14.6567 6.9334L10.86 10.7292C11.4838 11.6335 11.7607 12.7323 11.64 13.8242L13.8267 14.4801C14.1361 14.115 14.5619 13.8676 15.0323 13.7795C15.5028 13.6914 15.9892 13.7679 16.4098 13.9963C16.8304 14.2246 17.1596 14.5908 17.342 15.0333C17.5244 15.4758 17.5488 15.9676 17.4113 16.426C17.2737 16.8845 16.9825 17.2815 16.5866 17.5505C16.1907 17.8194 15.7143 17.9439 15.2374 17.9029C14.7606 17.8619 14.3124 17.658 13.9682 17.3254C13.624 16.9928 13.4048 16.5519 13.3475 16.0767L11.1617 15.4201C10.6996 16.3214 9.95196 17.0443 9.03558 17.4758C8.11919 17.9073 7.08568 18.0231 6.09652 17.8051C5.10737 17.5871 4.21829 17.0476 3.56821 16.2708C2.91813 15.494 2.54367 14.5238 2.50333 13.5117L2.5 13.3267L2.50333 13.1426C2.53581 12.3314 2.78316 11.5434 3.22007 10.8592C3.65698 10.175 4.26778 9.61911 4.99 9.2484L4.33333 7.06173C3.85306 7.00374 3.40794 6.78043 3.07433 6.4301C2.74073 6.07977 2.53944 5.62426 2.505 5.14173L2.5 4.9934L2.50417 4.85673C2.52671 4.51338 2.63395 4.18097 2.8163 3.88918C2.99865 3.59738 3.25043 3.3553 3.54916 3.18455C3.84788 3.01379 4.18425 2.91969 4.52821 2.91063C4.87218 2.90158 5.21303 2.97786 5.52032 3.13267C5.82762 3.28748 6.09178 3.51598 6.28923 3.79778C6.48667 4.07958 6.61125 4.40589 6.65182 4.74758C6.6924 5.08926 6.64771 5.43567 6.52175 5.75587C6.3958 6.07608 6.19249 6.3601 5.93 6.58256L6.58583 8.77006C7.67774 8.64933 8.77657 8.92626 9.68083 9.55006L13.4767 5.7534C13.3985 5.55401 13.3516 5.34376 13.3375 5.13006L13.3333 4.9934L13.3375 4.85673C13.3722 4.32894 13.6063 3.8341 13.9925 3.4726C14.3786 3.11109 14.8877 2.90998 15.4167 2.91006Z" fill="white"/>
</svg>
