<svg width="20" height="21" viewBox="0 0 20 21" fill="none" xmlns="http://www.w3.org/2000/svg">
<path fill-rule="evenodd" clip-rule="evenodd" d="M13.3333 12.91C14.4217 12.91 15.3483 13.6059 15.6917 14.5767H16.6667C16.8877 14.5767 17.0996 14.6645 17.2559 14.8208C17.4122 14.9771 17.5 15.189 17.5 15.41C17.5 15.631 17.4122 15.843 17.2559 15.9993C17.0996 16.1556 16.8877 16.2434 16.6667 16.2434H15.6917C15.5195 16.7313 15.2002 17.1538 14.7778 17.4527C14.3554 17.7516 13.8508 17.9121 13.3333 17.9121C12.8159 17.9121 12.3112 17.7516 11.8888 17.4527C11.4664 17.1538 11.1472 16.7313 10.975 16.2434H3.33333C3.11232 16.2434 2.90036 16.1556 2.74408 15.9993C2.5878 15.843 2.5 15.631 2.5 15.41C2.5 15.189 2.5878 14.9771 2.74408 14.8208C2.90036 14.6645 3.11232 14.5767 3.33333 14.5767H10.975C11.1474 14.0891 11.4668 13.6669 11.8892 13.3684C12.3116 13.0699 12.8161 12.9098 13.3333 12.91ZM13.3333 14.5767C13.1123 14.5767 12.9004 14.6645 12.7441 14.8208C12.5878 14.9771 12.5 15.189 12.5 15.41C12.5 15.631 12.5878 15.843 12.7441 15.9993C12.9004 16.1556 13.1123 16.2434 13.3333 16.2434C13.5543 16.2434 13.7663 16.1556 13.9226 15.9993C14.0789 15.843 14.1667 15.631 14.1667 15.41C14.1667 15.189 14.0789 14.9771 13.9226 14.8208C13.7663 14.6645 13.5543 14.5767 13.3333 14.5767ZM6.66667 7.91003C7.15749 7.90997 7.63748 8.05438 8.04678 8.32528C8.45608 8.59617 8.77658 8.98155 8.96833 9.43337L9.02417 9.5767H16.6667C16.8791 9.57694 17.0834 9.65827 17.2378 9.80407C17.3923 9.94988 17.4852 10.1492 17.4976 10.3612C17.5101 10.5732 17.4411 10.782 17.3048 10.9449C17.1685 11.1078 16.9751 11.2124 16.7642 11.2375L16.6667 11.2434H9.025C8.857 11.7186 8.54931 12.132 8.14228 12.4293C7.73524 12.7266 7.24786 12.894 6.74404 12.9095C6.24022 12.925 5.74348 12.7879 5.31894 12.5161C4.8944 12.2444 4.56189 11.8507 4.365 11.3867L4.30833 11.2434H3.33333C3.12093 11.2431 2.91664 11.1618 2.76219 11.016C2.60775 10.8702 2.5148 10.6709 2.50236 10.4589C2.48991 10.2468 2.5589 10.0381 2.69522 9.87517C2.83155 9.7123 3.02492 9.60762 3.23583 9.58253L3.33333 9.5767H4.30833C4.48074 9.08907 4.80014 8.66692 5.22252 8.36842C5.64489 8.06991 6.14946 7.90976 6.66667 7.91003ZM6.66667 9.5767C6.44565 9.5767 6.23369 9.6645 6.07741 9.82078C5.92113 9.97706 5.83333 10.189 5.83333 10.41C5.83333 10.631 5.92113 10.843 6.07741 10.9993C6.23369 11.1556 6.44565 11.2434 6.66667 11.2434C6.88768 11.2434 7.09964 11.1556 7.25592 10.9993C7.4122 10.843 7.5 10.631 7.5 10.41C7.5 10.189 7.4122 9.97706 7.25592 9.82078C7.09964 9.6645 6.88768 9.5767 6.66667 9.5767ZM13.3333 2.91003C14.4217 2.91003 15.3483 3.60587 15.6917 4.5767H16.6667C16.8877 4.5767 17.0996 4.6645 17.2559 4.82078C17.4122 4.97706 17.5 5.18902 17.5 5.41003C17.5 5.63105 17.4122 5.84301 17.2559 5.99929C17.0996 6.15557 16.8877 6.24337 16.6667 6.24337H15.6917C15.5195 6.73131 15.2002 7.15384 14.7778 7.45271C14.3554 7.75158 13.8508 7.91208 13.3333 7.91208C12.8159 7.91208 12.3112 7.75158 11.8888 7.45271C11.4664 7.15384 11.1472 6.73131 10.975 6.24337H3.33333C3.11232 6.24337 2.90036 6.15557 2.74408 5.99929C2.5878 5.84301 2.5 5.63105 2.5 5.41003C2.5 5.18902 2.5878 4.97706 2.74408 4.82078C2.90036 4.6645 3.11232 4.5767 3.33333 4.5767H10.975C11.1474 4.08907 11.4668 3.66692 11.8892 3.36841C12.3116 3.06991 12.8161 2.90976 13.3333 2.91003ZM13.3333 4.5767C13.1123 4.5767 12.9004 4.6645 12.7441 4.82078C12.5878 4.97706 12.5 5.18902 12.5 5.41003C12.5 5.63105 12.5878 5.84301 12.7441 5.99929C12.9004 6.15557 13.1123 6.24337 13.3333 6.24337C13.5543 6.24337 13.7663 6.15557 13.9226 5.99929C14.0789 5.84301 14.1667 5.63105 14.1667 5.41003C14.1667 5.18902 14.0789 4.97706 13.9226 4.82078C13.7663 4.6645 13.5543 4.5767 13.3333 4.5767Z" fill="white"/>
</svg>
