<svg width="20" height="21" viewBox="0 0 20 21" fill="none" xmlns="http://www.w3.org/2000/svg">
<path d="M2.08331 6.24341C2.08331 6.73587 2.18031 7.2235 2.36876 7.67847C2.55722 8.13344 2.83344 8.54684 3.18166 8.89506C3.52988 9.24328 3.94328 9.5195 4.39825 9.70796C4.85322 9.89641 5.34086 9.99341 5.83331 9.99341C6.32577 9.99341 6.81341 9.89641 7.26838 9.70796C7.72335 9.5195 8.13674 9.24328 8.48496 8.89506C8.83318 8.54684 9.10941 8.13344 9.29786 7.67847C9.48632 7.2235 9.58331 6.73587 9.58331 6.24341C9.58331 5.24885 9.18822 4.29502 8.48496 3.59176C7.7817 2.8885 6.82788 2.49341 5.83331 2.49341C4.83875 2.49341 3.88492 2.8885 3.18166 3.59176C2.4784 4.29502 2.08331 5.24885 2.08331 6.24341ZM2.08331 14.5767C2.08331 15.0692 2.18031 15.5568 2.36876 16.0118C2.55722 16.4668 2.83344 16.8802 3.18166 17.2284C3.52988 17.5766 3.94328 17.8528 4.39825 18.0413C4.85322 18.2297 5.34086 18.3267 5.83331 18.3267C6.32577 18.3267 6.81341 18.2297 7.26838 18.0413C7.72335 17.8528 8.13674 17.5766 8.48496 17.2284C8.83318 16.8802 9.10941 16.4668 9.29786 16.0118C9.48632 15.5568 9.58331 15.0692 9.58331 14.5767C9.58331 13.5822 9.18822 12.6284 8.48496 11.9251C7.7817 11.2218 6.82788 10.8267 5.83331 10.8267C4.83875 10.8267 3.88492 11.2218 3.18166 11.9251C2.4784 12.6284 2.08331 13.5822 2.08331 14.5767ZM10.4166 14.5767C10.4166 15.5713 10.8117 16.5251 11.515 17.2284C12.2183 17.9317 13.1721 18.3267 14.1666 18.3267C15.1612 18.3267 16.115 17.9317 16.8183 17.2284C17.5216 16.5251 17.9166 15.5713 17.9166 14.5767C17.9166 13.5822 17.5216 12.6284 16.8183 11.9251C16.115 11.2218 15.1612 10.8267 14.1666 10.8267C13.1721 10.8267 12.2183 11.2218 11.515 11.9251C10.8117 12.6284 10.4166 13.5822 10.4166 14.5767ZM14.6041 9.70591L14.8358 9.17591C15.2404 8.23665 15.9826 7.48339 16.9158 7.06507L17.6275 6.74841C18.0133 6.57757 18.0133 6.01674 17.6275 5.84591L16.9558 5.54674C15.9981 5.118 15.2423 4.33706 14.845 3.36591L14.6075 2.79257C14.5722 2.70455 14.5113 2.62912 14.4327 2.57599C14.3542 2.52286 14.2615 2.49447 14.1666 2.49447C14.0718 2.49447 13.9791 2.52286 13.9006 2.57599C13.822 2.62912 13.7611 2.70455 13.7258 2.79257L13.4883 3.36591C13.091 4.33706 12.3352 5.118 11.3775 5.54674L10.7058 5.84591C10.32 6.01674 10.32 6.57757 10.7058 6.74841L11.4175 7.06507C12.3507 7.48339 13.0929 8.23665 13.4975 9.17591L13.7291 9.70591C13.7655 9.79189 13.8264 9.86526 13.9042 9.91684C13.982 9.96842 14.0733 9.99592 14.1666 9.99592C14.26 9.99592 14.3513 9.96842 14.4291 9.91684C14.5069 9.86526 14.5678 9.79189 14.6041 9.70591Z" fill="white"/>
</svg>
