<svg width="166" height="112" viewBox="0 0 166 112" fill="none" xmlns="http://www.w3.org/2000/svg">
<rect x="0.900024" y="0.910034" width="164.6" height="110" rx="5.5" fill="white"/>
<rect x="0.900024" y="0.910034" width="164.6" height="110" rx="5.5" stroke="#E5E5E5"/>
<path d="M58.5291 56.3993C58.5291 57.1695 58.4334 57.8713 58.242 58.5048C58.0506 59.1337 57.7589 59.676 57.367 60.1317C56.9796 60.5874 56.4874 60.9384 55.8904 61.1844C55.2934 61.426 54.5871 61.5468 53.7713 61.5468C52.9555 61.5468 52.2492 61.426 51.6522 61.1844C51.0552 60.9384 50.5607 60.5874 50.1688 60.1317C49.7814 59.676 49.492 59.1314 49.3006 58.4979C49.1092 57.8645 49.0135 57.1604 49.0135 56.3856C49.0135 55.3511 49.1821 54.451 49.5193 53.6854C49.8611 52.9152 50.3852 52.3182 51.0916 51.8944C51.798 51.4706 52.6958 51.2587 53.785 51.2587C54.8696 51.2587 55.7606 51.4706 56.4578 51.8944C57.1596 52.3182 57.6792 52.9152 58.0164 53.6854C58.3582 54.4556 58.5291 55.3602 58.5291 56.3993ZM51.2352 56.3993C51.2352 57.0966 51.3218 57.6981 51.4949 58.204C51.6727 58.7053 51.9484 59.0927 52.3221 59.3661C52.6958 59.635 53.1789 59.7694 53.7713 59.7694C54.3729 59.7694 54.8605 59.635 55.2342 59.3661C55.6079 59.0927 55.879 58.7053 56.0477 58.204C56.2208 57.6981 56.3074 57.0966 56.3074 56.3993C56.3074 55.3511 56.1115 54.5262 55.7195 53.9247C55.3276 53.3231 54.6828 53.0223 53.785 53.0223C53.188 53.0223 52.7003 53.1591 52.3221 53.4325C51.9484 53.7014 51.6727 54.0887 51.4949 54.5946C51.3218 55.0959 51.2352 55.6975 51.2352 56.3993ZM63.6561 59.8856C63.8839 59.8856 64.105 59.8628 64.3192 59.8173C64.5379 59.7717 64.7544 59.7147 64.9686 59.6464V61.1981C64.7453 61.2984 64.4673 61.3804 64.1346 61.4442C63.8065 61.5126 63.4464 61.5468 63.0545 61.5468C62.5988 61.5468 62.1886 61.4738 61.824 61.328C61.464 61.1776 61.1792 60.9201 60.9695 60.5555C60.7645 60.1864 60.6619 59.6737 60.6619 59.0175V55.3329H59.6639V54.451L60.8123 53.7538L61.4139 52.1405H62.7469V53.7675H64.8865V55.3329H62.7469V59.0175C62.7469 59.3091 62.8289 59.5279 62.993 59.6737C63.1616 59.815 63.3826 59.8856 63.6561 59.8856ZM68.6053 50.7733V52.9403C68.6053 53.3186 68.5916 53.6786 68.5643 54.0204C68.5415 54.3622 68.5233 54.6037 68.5096 54.745H68.619C68.783 54.4807 68.9767 54.2665 69.2 54.1024C69.4279 53.9384 69.6785 53.8176 69.952 53.7401C70.2254 53.6626 70.5193 53.6239 70.8338 53.6239C71.3852 53.6239 71.866 53.7219 72.2762 53.9178C72.6863 54.1093 73.0054 54.4123 73.2332 54.827C73.4611 55.2372 73.575 55.7704 73.575 56.4266V61.41H71.4901V56.9462C71.4901 56.3993 71.3898 55.9869 71.1893 55.7089C70.9887 55.4309 70.6789 55.2919 70.2596 55.2919C69.8403 55.2919 69.5099 55.3899 69.2684 55.5858C69.0268 55.7772 68.8559 56.0621 68.7557 56.4403C68.6554 56.814 68.6053 57.272 68.6053 57.8143V61.41H66.5203V50.7733H68.6053ZM78.8729 53.6239C79.5792 53.6239 80.1876 53.7606 80.6981 54.0341C81.2085 54.3029 81.6027 54.6949 81.8807 55.2098C82.1587 55.7248 82.2977 56.3537 82.2977 57.0966V58.1083H77.369C77.3917 58.6962 77.5672 59.1587 77.8953 59.496C78.228 59.8287 78.6883 59.995 79.2762 59.995C79.7638 59.995 80.2104 59.9449 80.616 59.8446C81.0216 59.7443 81.4386 59.594 81.867 59.3934V61.0067C81.4887 61.1936 81.0923 61.3303 80.6776 61.4169C80.2674 61.5035 79.7684 61.5468 79.1805 61.5468C78.4149 61.5468 77.7358 61.4055 77.1434 61.1229C76.5555 60.8404 76.0929 60.4097 75.7557 59.8309C75.423 59.2522 75.2567 58.523 75.2567 57.6434C75.2567 56.7502 75.407 56.0074 75.7078 55.4149C76.0132 54.8179 76.437 54.3713 76.9793 54.0751C77.5216 53.7743 78.1528 53.6239 78.8729 53.6239ZM78.8865 55.1073C78.4809 55.1073 78.1437 55.2372 77.8748 55.4969C77.6105 55.7567 77.4578 56.1646 77.4168 56.7206H80.3426C80.338 56.4107 80.2811 56.135 80.1717 55.8934C80.0669 55.6519 79.9074 55.4605 79.6932 55.3192C79.4835 55.1779 79.2147 55.1073 78.8865 55.1073ZM88.2586 53.6239C88.3634 53.6239 88.4842 53.6307 88.6209 53.6444C88.7622 53.6535 88.8761 53.6672 88.9627 53.6854L88.8055 55.6405C88.7371 55.6177 88.6391 55.6018 88.5115 55.5927C88.3885 55.579 88.2814 55.5721 88.1902 55.5721C87.9214 55.5721 87.6593 55.6063 87.4041 55.6747C87.1535 55.743 86.9279 55.8547 86.7274 56.0096C86.5268 56.16 86.3673 56.3606 86.2488 56.6112C86.1349 56.8573 86.0779 57.1604 86.0779 57.5204V61.41H83.993V53.7675H85.5721L85.8797 55.0526H85.9822C86.1326 54.7928 86.3195 54.5559 86.5428 54.3417C86.7707 54.1229 87.0281 53.9497 87.3152 53.8221C87.6069 53.69 87.9214 53.6239 88.2586 53.6239Z" fill="#4B006E"/>
<g clip-path="url(#clip0_1_2902)">
<path fill-rule="evenodd" clip-rule="evenodd" d="M108.789 58.9992C108.633 59.1554 108.421 59.2432 108.2 59.2432C107.979 59.2432 107.767 59.1554 107.611 58.9992L102.897 54.285C102.817 54.2082 102.754 54.1162 102.71 54.0145C102.666 53.9129 102.643 53.8035 102.642 53.6929C102.641 53.5822 102.662 53.4725 102.704 53.3701C102.746 53.2677 102.808 53.1746 102.886 53.0964C102.965 53.0181 103.058 52.9563 103.16 52.9144C103.262 52.8724 103.372 52.8514 103.483 52.8523C103.593 52.8533 103.703 52.8763 103.805 52.92C103.906 52.9636 103.998 53.0271 104.075 53.1067L108.2 57.2317L112.325 53.1067C112.482 52.9549 112.693 52.8709 112.911 52.8728C113.13 52.8747 113.339 52.9623 113.493 53.1169C113.648 53.2714 113.735 53.4804 113.737 53.6989C113.739 53.9174 113.655 54.1279 113.503 54.285L108.789 58.9992Z" fill="#4B006E"/>
</g>
<defs>
<clipPath id="clip0_1_2902">
<rect width="20" height="20" fill="white" transform="translate(98.2 45.91)"/>
</clipPath>
</defs>
</svg>
