<svg width="10" height="17" viewBox="0 0 10 17" fill="none" xmlns="http://www.w3.org/2000/svg">
<path d="M8.85 0.901732C8.75324 0.804725 8.63829 0.727761 8.51174 0.675247C8.38519 0.622734 8.24952 0.595703 8.1125 0.595703C7.97549 0.595703 7.83982 0.622734 7.71327 0.675247C7.58671 0.727761 7.47177 0.804725 7.375 0.901732L0.450002 7.82673C0.372749 7.90383 0.31146 7.9954 0.269642 8.09621C0.227824 8.19702 0.206299 8.30509 0.206299 8.41423C0.206299 8.52337 0.227824 8.63144 0.269642 8.73225C0.31146 8.83306 0.372749 8.92464 0.450002 9.00173L7.375 15.9267C7.78334 16.3351 8.44167 16.3351 8.85 15.9267C9.25834 15.5184 9.25834 14.8601 8.85 14.4517L2.81667 8.41007L8.85834 2.3684C9.25834 1.9684 9.25834 1.30173 8.85 0.901732Z" fill="#5D6166"/>
</svg>
