<svg width="21" height="21" viewBox="0 0 21 21" fill="none" xmlns="http://www.w3.org/2000/svg">
<path d="M8.00259 14.2917L4.91419 10.8843C4.39325 10.3099 4.38476 9.62176 4.65711 9.0516C4.75977 8.83864 4.90316 8.64096 5.08387 8.46533C5.27307 8.28546 5.48435 8.1463 5.71256 8.05469C6.28357 7.8256 6.94705 7.8816 7.49175 8.44072L9.36343 10.3633C10.1075 8.80302 11.8884 6.58681 13.9875 4.62091C15.9856 2.75008 18.2848 1.09223 20.2677 0.42629C20.4 0.383019 20.551 0.427987 20.635 0.54677C20.7377 0.692704 20.7038 0.895489 20.5578 0.998139C18.4469 2.49225 16.4114 5.07503 14.7477 7.59915C13.0805 10.1285 11.7824 12.6068 11.1527 13.8674C11.0467 14.0812 10.9033 14.2645 10.7353 14.4163C10.4392 14.6845 10.0701 14.8457 9.68746 14.8949C9.30482 14.9449 8.90688 14.8847 8.5548 14.709C8.35371 14.6089 8.16535 14.4689 8.00245 14.2891L8.00259 14.2917ZM14.1692 2.71635C14.5332 2.92421 14.6596 3.38917 14.4517 3.75229C14.2439 4.11628 13.7789 4.24269 13.4158 4.03483C12.8236 3.6963 12.1855 3.43075 11.5161 3.2534C10.8679 3.08117 10.1824 2.98954 9.47134 2.98954C7.27651 2.98954 5.28758 3.87957 3.84948 5.31861C2.41052 6.75758 1.52042 8.74541 1.52042 10.9405C1.52042 13.1353 2.41045 15.1242 3.84948 16.5623C5.2876 18.0013 7.27629 18.8914 9.47134 18.8914C11.6664 18.8914 13.6551 18.0014 15.0932 16.5623C16.5322 15.1242 17.4223 13.1355 17.4223 10.9405C17.4223 10.1828 17.3171 9.45143 17.1219 8.76257C16.9191 8.04732 16.6188 7.37367 16.2387 6.75853C16.0189 6.40303 16.1292 5.93553 16.4847 5.71578C16.8402 5.49604 17.3077 5.60633 17.5275 5.96183C17.9839 6.69913 18.342 7.50175 18.583 8.35106C18.8171 9.1766 18.9427 10.0454 18.9427 10.9388C18.9427 13.5546 17.8821 15.9225 16.169 17.6365C14.4551 19.3503 12.0871 20.4102 9.47134 20.4102C6.85557 20.4102 4.48762 19.3496 2.77368 17.6365C1.05982 15.9226 0 13.5546 0 10.9388C0 8.32391 1.06056 5.9551 2.77368 4.24115C4.48754 2.52729 6.85557 1.46747 9.47134 1.46747C10.3071 1.46747 11.1224 1.57862 11.9021 1.78478C12.7064 1.99775 13.4683 2.31337 14.1699 2.71467L14.1692 2.71635Z" fill="#09AE2D"/>
</svg>
