<svg width="10" height="6" viewBox="0 0 10 6" fill="none" xmlns="http://www.w3.org/2000/svg">
<path fill-rule="evenodd" clip-rule="evenodd" d="M5.53026 5.6903C5.38962 5.8309 5.19889 5.90989 5.00001 5.90989C4.80114 5.90989 4.61041 5.8309 4.46976 5.6903L0.227013 1.44755C0.155381 1.37836 0.0982438 1.2956 0.058937 1.2041C0.0196303 1.1126 -0.00105945 1.01418 -0.00192481 0.914598C-0.00279017 0.815014 0.0161863 0.716254 0.053897 0.624082C0.0916076 0.53191 0.147297 0.44817 0.217717 0.377751C0.288137 0.307331 0.371875 0.251641 0.464047 0.213931C0.55622 0.17622 0.65498 0.157244 0.754564 0.158109C0.854149 0.158975 0.952563 0.179664 1.04407 0.218971C1.13557 0.258278 1.21833 0.315414 1.28751 0.387047L5.00001 4.09955L8.71251 0.387047C8.85397 0.250428 9.04342 0.174833 9.24006 0.176542C9.43671 0.17825 9.62482 0.257127 9.76388 0.396183C9.90293 0.535239 9.98181 0.723349 9.98352 0.919996C9.98523 1.11664 9.90963 1.3061 9.77301 1.44755L5.53026 5.6903Z" fill="#5D6166"/>
</svg>
