<svg width="14" height="14" viewBox="0 0 14 14" fill="none" xmlns="http://www.w3.org/2000/svg">
<path d="M6.33334 10.3334H7.66668V6.33337H6.33334V10.3334ZM7.00001 5.00004C7.1889 5.00004 7.34734 4.93604 7.47534 4.80804C7.60334 4.68004 7.66712 4.52182 7.66668 4.33337C7.66623 4.14493 7.60223 3.98671 7.47468 3.85871C7.34712 3.73071 7.1889 3.66671 7.00001 3.66671C6.81112 3.66671 6.6529 3.73071 6.52534 3.85871C6.39779 3.98671 6.33379 4.14493 6.33334 4.33337C6.3329 4.52182 6.3969 4.68026 6.52534 4.80871C6.65379 4.93715 6.81201 5.00093 7.00001 5.00004ZM7.00001 13.6667C6.07779 13.6667 5.21112 13.4916 4.40001 13.1414C3.5889 12.7912 2.88334 12.3163 2.28334 11.7167C1.68334 11.1172 1.20846 10.4116 0.858678 9.60004C0.5089 8.78848 0.333789 7.92182 0.333344 7.00004C0.3329 6.07826 0.508011 5.2116 0.858678 4.40004C1.20934 3.58849 1.68423 2.88293 2.28334 2.28337C2.88246 1.68382 3.58801 1.20893 4.40001 0.858707C5.21201 0.508485 6.07868 0.333374 7.00001 0.333374C7.92134 0.333374 8.78801 0.508485 9.60001 0.858707C10.412 1.20893 11.1176 1.68382 11.7167 2.28337C12.3158 2.88293 12.7909 3.58849 13.142 4.40004C13.4931 5.2116 13.668 6.07826 13.6667 7.00004C13.6653 7.92182 13.4902 8.78848 13.1413 9.60004C12.7925 10.4116 12.3176 11.1172 11.7167 11.7167C11.1158 12.3163 10.4102 12.7914 9.60001 13.142C8.78979 13.4927 7.92312 13.6676 7.00001 13.6667ZM7.00001 12.3334C8.4889 12.3334 9.75001 11.8167 10.7833 10.7834C11.8167 9.75004 12.3333 8.48893 12.3333 7.00004C12.3333 5.51115 11.8167 4.25004 10.7833 3.21671C9.75001 2.18337 8.4889 1.66671 7.00001 1.66671C5.51112 1.66671 4.25001 2.18337 3.21668 3.21671C2.18334 4.25004 1.66668 5.51115 1.66668 7.00004C1.66668 8.48893 2.18334 9.75004 3.21668 10.7834C4.25001 11.8167 5.51112 12.3334 7.00001 12.3334Z" fill="#141414"/>
</svg>
