<svg width="10" height="17" viewBox="0 0 10 17" fill="none" xmlns="http://www.w3.org/2000/svg">
<path d="M1.15001 15.9184C1.55835 16.3267 2.21668 16.3267 2.62501 15.9184L9.55001 8.99341C9.62726 8.91631 9.68855 8.82474 9.73037 8.72393C9.77219 8.62312 9.79372 8.51505 9.79372 8.40591C9.79372 8.29677 9.77219 8.1887 9.73037 8.08789C9.68855 7.98708 9.62726 7.8955 9.55001 7.81841L2.62501 0.893408C2.21668 0.485075 1.55835 0.485075 1.15001 0.893408C0.741679 1.30174 0.741679 1.96008 1.15001 2.36841L7.18335 8.41008L1.14168 14.4517C0.741679 14.8517 0.741679 15.5184 1.15001 15.9184Z" fill="#5D6166"/>
</svg>
